<svg width="265" height="53" viewBox="0 0 265 53" fill="none" xmlns="http://www.w3.org/2000/svg">
<path d="M41.6109 0.532043L34.9071 17.8669L16.8599 25.557L24.2395 29.2834L31.5826 26.1598L24.0569 45.0473L0 33.4847L0.712389 17.9947L41.6109 0.532043Z" fill="url(#paint0_linear_61_7671)"/>
<path d="M27.6367 52.5L34.1213 35.0921L52.0589 27.1645L44.6428 23.5295L37.3362 26.7626L44.6245 7.78381L68.8275 19.0359L68.316 34.5259L27.6367 52.5Z" fill="url(#paint1_linear_61_7671)"/>
<path d="M90.9743 24.7442L98.8471 12.8162C99.2489 12.2682 99.7604 12.1404 100.455 12.1221V12.1404C100.455 12.1404 100.455 12.1404 100.473 12.1404V12.1221C100.655 12.1221 100.875 12.1221 101.094 12.1221C101.13 12.1221 101.167 12.1221 101.203 12.1221C101.277 12.1221 101.35 12.1221 101.441 12.1221C101.733 12.1221 102.044 12.1221 102.391 12.1221C102.391 12.1221 103.067 12.1038 103.322 12.8162L107.213 24.7442C107.286 24.9451 107.231 25.1826 107.104 25.3835C106.976 25.5845 106.756 25.6941 106.556 25.6941H103.45C103.231 25.6941 103.067 25.5662 102.994 25.347L102.647 24.2145H96.0523L95.7783 24.6163L95.2669 25.347C95.1207 25.5479 94.865 25.6941 94.6275 25.6941H91.3761C91.1387 25.6941 90.956 25.5662 90.8647 25.3835C90.7916 25.1826 90.8281 24.9451 90.9743 24.7442ZM98.1712 20.9813H101.605L100.491 17.4376L98.1712 20.9813Z" fill="black"/>
<path d="M120.95 14.0218L120.621 15.8302C120.548 16.2686 120.128 16.5974 119.689 16.5974H113.826C113.661 16.5974 113.479 16.7435 113.46 16.9079L112.547 21.986C112.529 22.0591 112.547 22.1321 112.584 22.1687C112.62 22.2234 112.693 22.2417 112.766 22.2417H118.648C119.105 22.2417 119.415 22.607 119.342 23.0637L119.013 24.9086C118.94 25.3287 118.52 25.6941 118.082 25.6941H111.305C110.41 25.6941 109.606 25.347 109.095 24.7077C108.565 24.0684 108.364 23.2464 108.529 22.3513L109.606 16.4695C109.935 14.6611 111.707 13.1998 113.534 13.1998H120.292C120.731 13.2181 121.041 13.5834 120.95 14.0218Z" fill="black"/>
<path d="M134.102 14.0583L133.791 15.8119C133.718 16.2503 133.298 16.5974 132.86 16.5974H129.48C129.462 16.5974 129.444 16.6156 129.444 16.6339L127.946 24.9268C127.873 25.3652 127.453 25.7123 127.014 25.7123H124.713C124.494 25.7123 124.293 25.621 124.165 25.4748C124.037 25.3104 123.982 25.1095 124.019 24.8903L125.516 16.5974H122.155C121.936 16.5974 121.735 16.506 121.607 16.3599C121.48 16.1955 121.425 15.9946 121.461 15.7754L121.772 14.0218C121.845 13.5834 122.265 13.2363 122.703 13.2363H133.408C133.882 13.2363 134.193 13.6017 134.102 14.0583Z" fill="black"/>
<path d="M139.289 14.0583L137.316 24.9268C137.243 25.3652 136.823 25.7123 136.385 25.7123H134.083C133.864 25.7123 133.663 25.621 133.535 25.4748C133.407 25.3104 133.353 25.1095 133.389 24.8903L135.362 14.0218C135.435 13.5834 135.855 13.2363 136.293 13.2363H138.595C139.07 13.2363 139.362 13.6017 139.289 14.0583Z" fill="black"/>
<path d="M154.231 13.4556C154.322 13.6017 154.322 13.7844 154.231 13.967L153.335 15.6293C151.381 19.246 151.381 19.246 149.28 23.1733L148.203 25.1826C148.038 25.4931 147.691 25.7123 147.362 25.7123H143.198C142.851 25.7123 142.558 25.4749 142.503 25.1461L142.12 22.881C141.462 19.0816 141.462 19.0816 140.86 15.7571L140.531 13.9305C140.476 13.5834 140.786 13.2546 141.134 13.2546H143.965C144.312 13.2546 144.586 13.4738 144.659 13.8026L145.992 21.4015C145.992 21.438 146.029 21.438 146.047 21.4563C146.065 21.4563 146.084 21.4563 146.102 21.438L150.212 13.7844C150.376 13.4738 150.723 13.2729 151.052 13.2729H153.829C154.011 13.2546 154.157 13.3277 154.231 13.4556Z" fill="black"/>
<path d="M167.164 13.7661L166.744 16.0677C166.689 16.36 166.433 16.5792 166.141 16.5792H158.98C158.962 16.5792 158.944 16.5974 158.944 16.6157L158.725 17.8761H164.478C164.625 17.8761 164.752 17.9309 164.844 18.0405C164.935 18.1501 164.972 18.2779 164.935 18.4241L164.552 20.543C164.497 20.8352 164.241 21.0544 163.949 21.0544H158.195C158.177 21.0544 158.158 21.0727 158.158 21.091L157.939 22.26H165.1C165.246 22.26 165.374 22.3148 165.465 22.4244C165.556 22.534 165.593 22.6619 165.556 22.808L165.118 25.2009C165.063 25.4932 164.807 25.7124 164.515 25.7124H154.194C153.975 25.7124 153.774 25.621 153.646 25.4749C153.519 25.3105 153.464 25.1096 153.5 24.8904L155.473 14.0036C155.546 13.5835 155.966 13.2181 156.405 13.2181H166.707C166.999 13.2181 167.218 13.4556 167.164 13.7661Z" fill="black"/>
<path d="M174.561 24.7442L182.434 12.8162C182.836 12.2682 183.347 12.1404 184.041 12.1221C184.224 12.1221 184.443 12.1221 184.662 12.1221C184.699 12.1221 184.736 12.1221 184.772 12.1221C184.845 12.1221 184.918 12.1221 185.01 12.1221C185.302 12.1221 185.612 12.1221 185.959 12.1221C185.959 12.1221 186.635 12.1038 186.891 12.8162L190.782 24.7442C190.855 24.9451 190.8 25.1826 190.672 25.3835C190.544 25.5845 190.325 25.6941 190.124 25.6941H187.019C186.8 25.6941 186.635 25.5662 186.562 25.347L186.215 24.2145H179.658L179.384 24.6163L178.872 25.347C178.726 25.5479 178.47 25.6941 178.233 25.6941H174.963C174.726 25.6941 174.543 25.5662 174.452 25.3835C174.379 25.1826 174.415 24.9451 174.561 24.7442ZM181.776 20.9813H185.21L184.096 17.4376L181.776 20.9813Z" fill="black"/>
<path d="M206.418 16.5608L205.924 19.3373C205.705 20.5429 204.828 21.6389 203.659 22.2234C203.641 22.2417 203.623 22.2599 203.623 22.2599L205.048 24.7442C205.157 24.9451 205.157 25.1643 205.048 25.3652C204.938 25.5479 204.737 25.6758 204.518 25.6758C203.294 25.6758 202.874 25.7123 201.814 25.7123C201.157 25.7123 200.865 25.6575 200.7 25.3104L199.403 22.7531C199.367 22.6801 199.294 22.6435 199.202 22.6435H196.408C196.389 22.6435 196.371 22.6618 196.371 22.6801L195.969 24.9451C195.896 25.3835 195.476 25.7305 195.038 25.7305H192.736C192.279 25.7305 191.969 25.3652 192.042 24.9086L194.015 14.0218C194.088 13.6016 194.508 13.2363 194.946 13.2363H203.659C205.504 13.218 206.765 14.7159 206.418 16.5608ZM202.326 16.6521C202.253 16.5608 202.143 16.5243 202.015 16.5243H197.504C197.485 16.5243 197.467 16.5425 197.467 16.5608L196.974 19.319H201.486C201.76 19.319 202.034 19.0998 202.088 18.8076L202.417 16.9809C202.435 16.8531 202.399 16.7435 202.326 16.6521Z" fill="black"/>
<path d="M220.538 13.7661L220.118 16.0677C220.063 16.36 219.807 16.5792 219.515 16.5792H212.354C212.336 16.5792 212.318 16.5974 212.318 16.6157L212.099 17.8761H217.853C217.999 17.8761 218.127 17.9309 218.218 18.0405C218.309 18.1501 218.346 18.2779 218.309 18.4241L217.926 20.543C217.871 20.8352 217.615 21.0544 217.323 21.0544H211.551C211.532 21.0544 211.514 21.0727 211.514 21.091L211.295 22.26H218.455C218.601 22.26 218.729 22.3148 218.821 22.4244C218.912 22.534 218.948 22.6619 218.912 22.808L218.474 25.2009C218.419 25.4932 218.163 25.7124 217.871 25.7124H207.569C207.349 25.7124 207.148 25.621 207.021 25.4749C206.893 25.3288 206.838 25.1096 206.874 24.8904L208.847 14.0036C208.92 13.5835 209.34 13.2181 209.779 13.2181H220.081C220.392 13.2181 220.592 13.4556 220.538 13.7661Z" fill="black"/>
<path d="M235.187 14.0584L233.233 24.9269C233.16 25.3653 232.739 25.7123 232.301 25.7123H229.78C229.543 25.7123 229.324 25.6027 229.196 25.4201L225.433 18.7894C225.415 18.7711 225.378 18.7711 225.378 18.7711C225.36 18.7711 225.342 18.7894 225.342 18.8076L224.227 24.9269C224.154 25.3653 223.734 25.6941 223.296 25.6941H221.012C220.556 25.6941 220.245 25.3287 220.318 24.8721L222.273 14.0036C222.346 13.5652 222.766 13.2181 223.204 13.2181H226.127C226.364 13.2181 226.584 13.3277 226.712 13.5104L230.182 19.6661C230.2 19.6844 230.237 19.6844 230.237 19.6844C230.255 19.6844 230.273 19.6662 230.273 19.6479L231.296 13.9853C231.369 13.5469 231.79 13.1998 232.228 13.1998H234.511C234.95 13.2364 235.26 13.6017 235.187 14.0584Z" fill="black"/>
<path d="M249.308 24.6894C249.454 25.146 249.07 25.694 248.613 25.694H245.819C245.581 25.694 245.362 25.5296 245.289 25.2922L244.997 24.3606H239.243L239.042 24.6711L238.585 25.3287C238.421 25.5479 238.165 25.694 237.909 25.694H234.968C234.42 25.694 234.165 25.1095 234.512 24.6528L241.581 13.9305C242.038 13.3094 242.622 13.2729 243.243 13.2363C243.462 13.2363 244.704 13.2546 244.869 13.2363C245.106 13.2363 245.599 13.3825 245.8 13.9487L249.308 24.6894ZM243.152 18.424L241.325 21.2188H244.047L243.152 18.424Z" fill="black"/>
<path d="M264.304 14.0584L264.03 15.611C263.92 16.1955 263.555 16.7618 263.025 17.1454L256.687 22.2417C256.669 22.26 256.669 22.2783 256.669 22.2783H262.002C262.459 22.2783 262.77 22.6436 262.697 23.1003L262.368 24.9452C262.295 25.3836 261.875 25.7306 261.436 25.7306H250.787C250.33 25.7306 250.02 25.3653 250.093 24.9086L250.385 23.2829C250.495 22.6801 250.86 22.1139 251.39 21.7485L257.801 16.6522C257.819 16.6339 257.819 16.6157 257.819 16.6157H252.504C252.047 16.6157 251.737 16.2503 251.81 15.7937L252.12 14.0401C252.193 13.6017 252.613 13.2547 253.052 13.2547H263.592C264.085 13.2364 264.395 13.62 264.304 14.0584Z" fill="black"/>
<path d="M92.1798 32.7083H96.5638L96.3081 33.8591H93.5681L93.3124 35.1012H95.8879L95.6505 36.2155H93.0749L92.7461 37.7498H95.5774L95.3217 38.9189H90.8281L92.1798 32.7083Z" fill="black"/>
<path d="M97.8054 32.1969H99.3945L97.9698 38.9372H96.3623L97.8054 32.1969Z" fill="black"/>
<path d="M104.254 37.0375H100.948C100.984 37.3846 101.094 37.622 101.277 37.7864C101.478 37.9508 101.752 38.0239 102.135 38.0239C102.391 38.0239 102.647 37.9874 102.921 37.9326C103.195 37.8778 103.45 37.7864 103.706 37.6768L103.523 38.8093C103.249 38.9007 102.976 38.9555 102.683 39.0103C102.391 39.0468 102.117 39.0833 101.825 39.0833C101.112 39.0833 100.546 38.8824 100.126 38.4988C99.7058 38.1152 99.5049 37.5855 99.5049 36.9096C99.5049 36.5443 99.5779 36.1607 99.7241 35.7954C99.8702 35.4301 100.071 35.1195 100.327 34.8638C100.564 34.6263 100.875 34.4437 101.222 34.3158C101.569 34.1879 101.953 34.1331 102.391 34.1331C103.03 34.1331 103.523 34.2975 103.871 34.6446C104.218 34.9917 104.382 35.4849 104.382 36.1242C104.382 36.252 104.382 36.3982 104.364 36.5443C104.309 36.727 104.291 36.8731 104.254 37.0375ZM103.012 36.1425C103.012 36.0877 103.03 36.0329 103.03 36.0146C103.03 35.9781 103.03 35.9598 103.03 35.9415C103.03 35.6858 102.957 35.4849 102.811 35.3387C102.665 35.1926 102.464 35.1195 102.227 35.1195C101.971 35.1195 101.752 35.2109 101.569 35.3935C101.368 35.5762 101.24 35.8319 101.149 36.1607H103.012V36.1425Z" fill="black"/>
<path d="M105.131 34.3158H106.72L107.085 37.6403L108.729 34.3158H110.41L107.706 38.9372H105.898L105.131 34.3158Z" fill="black"/>
<path d="M115.14 36.4529L114.866 37.7681C114.812 38.0421 114.757 38.2613 114.739 38.4257C114.702 38.5901 114.684 38.7728 114.684 38.9371H113.35L113.442 38.243C113.259 38.4988 113.04 38.6997 112.766 38.8458C112.492 38.9919 112.181 39.0467 111.834 39.0467C111.359 39.0467 110.994 38.9189 110.72 38.6632C110.446 38.4074 110.3 38.0786 110.3 37.6585C110.3 37.1288 110.537 36.7086 111.012 36.4164C111.487 36.1241 112.163 35.978 113.022 35.978C113.131 35.978 113.241 35.978 113.35 35.9963C113.478 35.9963 113.606 36.0145 113.752 36.0328C113.752 36.0145 113.752 35.9963 113.752 35.978C113.752 35.9597 113.752 35.9232 113.752 35.8867C113.752 35.6492 113.679 35.4665 113.533 35.3569C113.387 35.2291 113.168 35.1743 112.875 35.1743C112.601 35.1743 112.346 35.2108 112.09 35.2656C111.834 35.3204 111.597 35.4117 111.359 35.5213L111.542 34.4436C111.798 34.3523 112.053 34.2792 112.309 34.2427C112.565 34.2061 112.821 34.1696 113.076 34.1696C113.752 34.1696 114.282 34.2975 114.665 34.5532C115.049 34.8089 115.232 35.1743 115.232 35.6309C115.232 35.7405 115.232 35.8501 115.213 35.9963C115.195 36.1424 115.159 36.2885 115.14 36.4529ZM113.569 36.8182C113.515 36.8182 113.442 36.8 113.387 36.8C113.332 36.8 113.222 36.8 113.113 36.8C112.693 36.8 112.364 36.8548 112.145 36.9826C111.926 37.1105 111.816 37.2749 111.816 37.5124C111.816 37.6585 111.871 37.7864 111.98 37.896C112.09 37.9873 112.236 38.0421 112.4 38.0421C112.693 38.0421 112.948 37.9325 113.168 37.7133C113.369 37.4941 113.515 37.2018 113.569 36.8182Z" fill="black"/>
<path d="M118.959 32.7814L118.63 34.3341H119.762L119.525 35.4301H118.392L118.045 37.0375C118.027 37.1288 118.009 37.2019 117.99 37.275C117.972 37.348 117.972 37.4028 117.972 37.4394C117.972 37.6038 118.009 37.7316 118.082 37.8047C118.155 37.8778 118.283 37.9143 118.465 37.9143C118.538 37.9143 118.611 37.9143 118.703 37.896C118.794 37.8778 118.885 37.8595 118.995 37.823L118.758 38.919C118.557 38.9555 118.392 38.9738 118.246 38.992C118.1 39.0103 117.972 39.0103 117.863 39.0103C117.388 39.0103 117.004 38.8824 116.748 38.645C116.493 38.4075 116.365 38.0604 116.365 37.6038C116.365 37.5307 116.365 37.4576 116.383 37.3846C116.401 37.3115 116.401 37.2384 116.419 37.1471L116.785 35.4118H115.835L116.072 34.3158H117.022L117.26 33.2198L118.959 32.7814Z" fill="black"/>
<path d="M124.64 37.0375H121.334C121.37 37.3846 121.48 37.622 121.662 37.7864C121.863 37.9508 122.137 38.0239 122.521 38.0239C122.777 38.0239 123.032 37.9874 123.306 37.9326C123.58 37.8778 123.836 37.7864 124.092 37.6768L123.909 38.8093C123.635 38.9007 123.361 38.9555 123.069 39.0103C122.777 39.0468 122.503 39.0833 122.21 39.0833C121.498 39.0833 120.932 38.8824 120.512 38.4988C120.092 38.1152 119.891 37.5855 119.891 36.9096C119.891 36.5443 119.964 36.1607 120.11 35.7954C120.256 35.4301 120.457 35.1195 120.713 34.8638C120.95 34.6263 121.261 34.4437 121.608 34.3158C121.955 34.1879 122.338 34.1331 122.777 34.1331C123.416 34.1331 123.909 34.2975 124.256 34.6446C124.603 34.9917 124.768 35.4849 124.768 36.1242C124.768 36.252 124.768 36.3982 124.749 36.5443C124.695 36.727 124.676 36.8731 124.64 37.0375ZM123.398 36.1425C123.398 36.0877 123.416 36.0329 123.416 36.0146C123.416 35.9781 123.416 35.9598 123.416 35.9415C123.416 35.6858 123.343 35.4849 123.197 35.3387C123.051 35.1926 122.85 35.1195 122.612 35.1195C122.357 35.1195 122.137 35.2109 121.955 35.3935C121.754 35.5762 121.626 35.8319 121.535 36.1607H123.398V36.1425Z" fill="black"/>
<path d="M128.274 34.3158H129.882L130.156 36.179V36.1973C130.229 36.6722 130.265 37.0923 130.302 37.4211C130.375 37.2202 130.466 37.0375 130.539 36.8731C130.612 36.7087 130.685 36.5626 130.759 36.4347L131.909 34.2975H133.59L130.612 39.3939C130.284 39.9784 129.955 40.362 129.626 40.5812C129.297 40.8004 128.914 40.91 128.439 40.91C128.256 40.91 128.073 40.8917 127.872 40.8552C127.672 40.8187 127.452 40.7639 127.215 40.6725L127.598 39.5583C127.726 39.6131 127.836 39.6496 127.946 39.6861C128.055 39.7044 128.165 39.7227 128.274 39.7227C128.512 39.7227 128.731 39.6679 128.895 39.54C129.06 39.4121 129.206 39.2295 129.297 38.992L128.274 34.3158Z" fill="black"/>
<path d="M136.53 34.1879C137.279 34.1879 137.864 34.3889 138.284 34.7725C138.704 35.156 138.923 35.6858 138.923 36.3616C138.923 37.1654 138.649 37.8229 138.101 38.3161C137.553 38.8093 136.822 39.0651 135.927 39.0651C135.197 39.0651 134.612 38.8824 134.192 38.4988C133.772 38.1152 133.553 37.6037 133.553 36.9462C133.553 36.1059 133.827 35.43 134.356 34.9368C134.904 34.4437 135.617 34.1879 136.53 34.1879ZM137.316 36.2886C137.316 35.978 137.243 35.7223 137.078 35.5214C136.914 35.3204 136.713 35.2474 136.457 35.2474C136.11 35.2474 135.836 35.4118 135.58 35.7406C135.343 36.0694 135.215 36.4712 135.215 36.9462C135.215 37.2567 135.306 37.5124 135.471 37.6951C135.635 37.8777 135.854 37.9873 136.11 37.9873C136.439 37.9873 136.731 37.8229 136.969 37.4941C137.188 37.1653 137.316 36.7635 137.316 36.2886Z" fill="black"/>
<path d="M140.202 34.3158H141.828L141.335 36.6356C141.317 36.7087 141.298 36.8 141.298 36.8731C141.298 36.9462 141.28 37.0192 141.28 37.0923C141.28 37.3115 141.335 37.4942 141.444 37.6038C141.554 37.7134 141.7 37.7864 141.901 37.7864C142.193 37.7864 142.467 37.6585 142.668 37.4028C142.887 37.1471 143.034 36.7635 143.143 36.2703L143.563 34.3158H145.189L144.203 38.9372H142.76L142.942 38.1517C142.687 38.444 142.394 38.6815 142.102 38.8276C141.81 38.9737 141.499 39.0468 141.17 39.0468C140.695 39.0468 140.312 38.9007 140.056 38.6267C139.8 38.3527 139.654 37.9508 139.654 37.4394C139.654 37.275 139.673 37.0923 139.691 36.8731C139.727 36.6539 139.764 36.4164 139.819 36.1607L140.202 34.3158Z" fill="black"/>
<path d="M149.756 34.2975L149.391 35.6492C149.245 35.6127 149.117 35.5762 148.989 35.5579C148.879 35.5396 148.77 35.5214 148.697 35.5214C148.349 35.5214 148.094 35.631 147.893 35.8502C147.692 36.0694 147.546 36.4347 147.436 36.9462L146.998 38.9372H145.372L146.322 34.2975H147.783L147.619 35.1378C147.856 34.809 148.094 34.5533 148.331 34.4071C148.569 34.261 148.843 34.1879 149.153 34.1879C149.245 34.1879 149.336 34.1879 149.445 34.2062C149.537 34.2427 149.646 34.261 149.756 34.2975Z" fill="black"/>
<path d="M158.798 32.8545L158.432 34.1331C158.195 34.0053 157.958 33.9139 157.702 33.8591C157.446 33.8043 157.19 33.7678 156.916 33.7678C156.094 33.7678 155.437 33.987 154.98 34.4071C154.523 34.8273 154.286 35.4118 154.286 36.1424C154.286 36.6722 154.432 37.0923 154.724 37.4028C155.017 37.7134 155.4 37.8595 155.912 37.8595C156.021 37.8595 156.113 37.8595 156.222 37.8412C156.332 37.823 156.441 37.8047 156.569 37.7682L156.843 36.4712H155.82L156.058 35.3387H158.652L157.921 38.7911C157.61 38.9007 157.282 38.9737 156.935 39.0285C156.588 39.0833 156.204 39.1016 155.784 39.1016C154.779 39.1016 153.994 38.8459 153.446 38.3344C152.898 37.823 152.605 37.0923 152.605 36.1607C152.605 35.6858 152.679 35.2474 152.843 34.8273C153.007 34.4254 153.227 34.0601 153.537 33.7495C153.921 33.3477 154.359 33.0554 154.871 32.8728C155.382 32.6901 156.003 32.5988 156.734 32.5988C157.117 32.5988 157.464 32.617 157.811 32.6718C158.14 32.6718 158.469 32.7449 158.798 32.8545Z" fill="black"/>
<path d="M163.985 36.453L163.711 37.7682C163.656 38.0422 163.602 38.2614 163.583 38.4258C163.565 38.5902 163.528 38.7728 163.528 38.9372H162.195L162.286 38.2431C162.104 38.4988 161.884 38.6998 161.61 38.8459C161.337 38.992 161.044 39.0286 160.679 39.0286C160.204 39.0286 159.839 38.9007 159.565 38.645C159.291 38.3892 159.145 38.0604 159.145 37.6403C159.145 37.1106 159.382 36.6905 159.857 36.3982C160.332 36.1059 161.008 35.9598 161.866 35.9598C161.976 35.9598 162.085 35.9598 162.195 35.9781C162.323 35.9781 162.451 35.9963 162.597 36.0146C162.597 35.9963 162.597 35.9781 162.597 35.9598C162.597 35.9415 162.597 35.905 162.597 35.8685C162.597 35.631 162.524 35.4483 162.378 35.3387C162.232 35.2291 162.012 35.1561 161.72 35.1561C161.446 35.1561 161.19 35.1926 160.935 35.2474C160.679 35.3022 160.441 35.3935 160.204 35.5031L160.387 34.4254C160.642 34.3341 160.898 34.261 161.154 34.2245C161.41 34.188 161.665 34.1514 161.921 34.1514C162.597 34.1514 163.127 34.2793 163.51 34.535C163.894 34.7908 164.076 35.1561 164.076 35.6127C164.076 35.7223 164.076 35.8319 164.058 35.9781C164.04 36.1425 164.022 36.2886 163.985 36.453ZM162.414 36.8183C162.359 36.8183 162.286 36.8001 162.232 36.8001C162.177 36.8001 162.067 36.8001 161.958 36.8001C161.537 36.8001 161.209 36.8549 160.989 36.9827C160.77 37.1106 160.661 37.275 160.661 37.5125C160.661 37.6586 160.715 37.7864 160.825 37.896C160.935 37.9874 161.081 38.0422 161.245 38.0422C161.537 38.0422 161.793 37.9326 162.012 37.7134C162.232 37.4942 162.359 37.2019 162.414 36.8183Z" fill="black"/>
<path d="M172.552 36.2885L171.986 38.9371H170.452L170.945 36.6173C170.963 36.4894 171 36.3981 171 36.2885C171.018 36.1972 171.018 36.1058 171.018 36.0328C171.018 35.8684 170.981 35.7223 170.89 35.6309C170.799 35.5396 170.689 35.4848 170.543 35.4848C170.415 35.4848 170.306 35.5031 170.196 35.5579C170.086 35.6127 169.995 35.6857 169.922 35.7953C169.776 35.978 169.648 36.3068 169.575 36.7634C169.557 36.8548 169.538 36.9278 169.538 36.9826L169.118 38.9371H167.474L167.967 36.6173C167.986 36.5077 168.004 36.3981 168.022 36.2885C168.04 36.1789 168.04 36.0876 168.04 35.978C168.04 35.8136 168.004 35.704 167.913 35.6127C167.821 35.5213 167.712 35.4848 167.547 35.4848C167.31 35.4848 167.109 35.5761 166.963 35.7588C166.817 35.9415 166.689 36.2337 166.616 36.6173L166.122 38.9189H164.479L165.465 34.2609H166.853L166.67 35.1012C166.944 34.7907 167.2 34.5532 167.456 34.4071C167.712 34.2609 167.986 34.1879 168.278 34.1879C168.607 34.1879 168.881 34.2609 169.082 34.4071C169.283 34.5532 169.447 34.7907 169.538 35.0829C169.794 34.7541 170.05 34.5349 170.324 34.3888C170.58 34.2427 170.872 34.1696 171.201 34.1696C171.639 34.1696 171.986 34.2975 172.242 34.5532C172.497 34.8089 172.625 35.1743 172.625 35.6127C172.625 35.7223 172.625 35.8136 172.607 35.9232C172.589 36.0693 172.571 36.1789 172.552 36.2885Z" fill="black"/>
<path d="M178.105 37.0375H174.799C174.835 37.3846 174.945 37.622 175.127 37.7864C175.328 37.9508 175.602 38.0239 175.986 38.0239C176.242 38.0239 176.497 37.9874 176.771 37.9326C177.045 37.8778 177.301 37.7864 177.557 37.6768L177.374 38.8093C177.1 38.9007 176.826 38.9555 176.534 39.0103C176.242 39.0468 175.968 39.0833 175.675 39.0833C174.963 39.0833 174.397 38.8824 173.977 38.4988C173.556 38.1152 173.355 37.5855 173.355 36.9096C173.355 36.5443 173.429 36.1607 173.575 35.7954C173.721 35.4301 173.922 35.1195 174.177 34.8638C174.415 34.6263 174.725 34.4437 175.073 34.3158C175.42 34.1879 175.803 34.1331 176.242 34.1331C176.881 34.1331 177.374 34.2975 177.721 34.6446C178.068 34.9917 178.233 35.4849 178.233 36.1242C178.233 36.252 178.233 36.3982 178.214 36.5443C178.178 36.727 178.141 36.8731 178.105 37.0375ZM176.881 36.1425C176.881 36.0877 176.899 36.0329 176.899 36.0146C176.899 35.9963 176.899 35.9598 176.899 35.9415C176.899 35.6858 176.826 35.4849 176.68 35.3387C176.534 35.1926 176.333 35.1195 176.095 35.1195C175.84 35.1195 175.62 35.2109 175.438 35.3935C175.237 35.5762 175.109 35.8319 175.018 36.1607H176.881V36.1425Z" fill="black"/>
<path d="M91.9972 38.0421C92.6428 38.0421 93.1662 37.5187 93.1662 36.8731C93.1662 36.2274 92.6428 35.704 91.9972 35.704C91.3515 35.704 90.8281 36.2274 90.8281 36.8731C90.8281 37.5187 91.3515 38.0421 91.9972 38.0421Z" fill="black"/>
<defs>
<linearGradient id="paint0_linear_61_7671" x1="43.4591" y1="21.8999" x2="-0.595681" y2="25.5778" gradientUnits="userSpaceOnUse">
<stop offset="0.0872099" stop-color="#FF0117"/>
<stop offset="0.2202" stop-color="#FF2717"/>
<stop offset="0.3977" stop-color="#FF5317"/>
<stop offset="0.5693" stop-color="#FF7517"/>
<stop offset="0.731" stop-color="#FF8E17"/>
<stop offset="0.8788" stop-color="#FF9D17"/>
<stop offset="1" stop-color="#FFA217"/>
</linearGradient>
<linearGradient id="paint1_linear_61_7671" x1="69.5819" y1="27.3465" x2="25.9018" y2="30.9931" gradientUnits="userSpaceOnUse">
<stop offset="0.0872099" stop-color="#FF0117"/>
<stop offset="0.1853" stop-color="#FF1C17"/>
<stop offset="0.3789" stop-color="#FF4C17"/>
<stop offset="0.5633" stop-color="#FF7117"/>
<stop offset="0.7334" stop-color="#FF8C17"/>
<stop offset="0.8842" stop-color="#FF9C17"/>
<stop offset="1" stop-color="#FFA217"/>
</linearGradient>
</defs>
</svg>
