<svg width="56" height="56" viewBox="0 0 56 56" fill="none" xmlns="http://www.w3.org/2000/svg">
<path d="M8.4877 8.44487C-2.35156 19.2841 -2.35604 36.9373 8.49449 47.7878C19.3451 58.6384 36.9845 58.6202 47.8237 47.781C58.663 36.9418 58.6811 19.3023 47.8306 8.45177C36.98 -2.3988 19.327 -2.39443 8.4877 8.44487ZM10.4559 11.7507C21.8883 13.646 30.6529 18.5646 37.1197 25.9122C35.8799 27.2883 34.5295 28.6467 33.107 30.0068C30.3564 27.921 26.4756 26.9283 21.6343 26.8327C16.8153 26.7375 10.9616 27.5749 4.08767 29.3499C4.10577 22.4071 5.41381 16.7269 10.4559 11.7507ZM13.9502 8.63892C20.6302 3.75476 29.239 2.73074 36.7268 5.59185C36.4377 11.9361 37.314 16.3065 40.9137 21.2984C40.4507 21.9168 39.9628 22.5142 39.4671 23.1275C33.0313 16.019 24.5649 10.9639 13.9502 8.63892ZM4.56759 33.0509C11.4197 31.2548 17.1288 30.4731 21.568 30.5608C25.4975 30.6384 28.3781 31.405 30.2816 32.5863C25.2455 37.0019 19.1649 41.3837 11.8665 45.8368C7.61172 41.6366 5.33629 36.9018 4.56759 33.0509ZM40.4012 7.38266C42.991 8.88057 44.7154 10.4531 46.4124 12.4112C45.4536 14.341 44.3541 16.2245 43.138 18.0904C40.809 14.5603 40.4588 10.6179 40.4012 7.38266ZM14.995 48.2828C21.9612 43.9619 27.8747 39.6705 32.8503 35.2916C33.5087 36.6123 33.7037 38.2494 33.4265 40.3446C33.0127 43.4716 31.3657 47.5179 28.3526 52.2227C23.6994 52.2542 19.0421 50.9406 14.995 48.2828ZM48.8449 15.7719C50.1637 17.9695 51.1056 20.3368 51.6617 22.7652C49.3182 22.6244 47.3684 21.9701 45.775 20.8366C46.8935 19.1731 47.9202 17.489 48.8449 15.7719ZM43.6462 23.8398C46.0265 25.4998 48.9518 26.3944 52.2099 26.4799C52.5145 30.8977 51.6007 35.3973 49.4718 39.4107C47.4841 34.4819 44.9652 29.9891 41.8994 26.0239C42.5018 25.2948 43.0864 24.5773 43.6462 23.8398ZM39.4701 28.8358C42.5654 33.0147 45.0522 37.8284 46.961 43.2058C46.4176 43.8805 45.841 44.5444 45.2141 45.1713C41.7375 48.6479 37.4672 50.8241 32.9954 51.7335C35.2823 47.7371 36.6668 44.0994 37.1002 40.8245C37.501 37.7959 36.996 34.9971 35.6075 32.753C36.9637 31.4583 38.266 30.1505 39.4701 28.8358Z" fill="#6B6B6B"/>
</svg>
