<svg width="56" height="58" viewBox="0 0 56 58" fill="none" xmlns="http://www.w3.org/2000/svg">
<path fill-rule="evenodd" clip-rule="evenodd" d="M30.1413 18.8088L33.2339 20.8896L33.2339 20.8896L34.4299 21.6944L35.1458 22.1761C36.1018 22.8786 36.2453 24.1276 35.7219 24.9056L16.7976 53.0309C16.5375 53.4175 16.1345 53.6999 15.5509 53.8141C14.9736 53.927 14.498 53.8208 14.1136 53.5668L8.29588 49.556L8.27864 49.5442L8.26127 49.5325C7.4332 48.9753 7.19848 47.7751 7.75565 46.947L26.6799 18.8217C26.94 18.4351 27.343 18.1526 27.9267 18.0385C28.5104 17.9244 28.9901 18.0342 29.3766 18.2943L30.1413 18.8088ZM45.3028 2.7366L43.5733 1.5729L42.2272 0.667191L40.1749 3.75416L34.263 12.6463L32.2107 15.7333L31.446 15.2188C31.3706 15.168 31.2943 15.1194 31.2173 15.0728C30.0044 14.3401 28.601 14.1295 27.2153 14.4005C25.7415 14.6887 24.4544 15.489 23.6044 16.7523L4.68013 44.8776C2.98008 47.4042 3.66527 50.9079 6.19189 52.608L12.0315 56.6338C13.2948 57.4838 14.7885 57.7403 16.2623 57.4521C17.7361 57.1638 19.0231 56.3636 19.8731 55.1003L38.7974 26.975C40.4794 24.4753 39.8266 21.0192 37.3447 19.1918C37.318 19.1721 37.291 19.1527 37.2639 19.1334L36.4993 18.6189L38.5789 15.5502L44.5692 6.71092L46.6488 3.64228L46.6484 3.64199L45.3028 2.7366ZM34.8202 51.6483L44.2489 37.5933C42.4848 37.2872 40.6698 37.499 39.0236 38.2029C37.3773 38.9069 35.9703 40.0729 34.9727 41.5599C33.9752 43.0469 33.4299 44.7911 33.4029 46.5815C33.3758 48.3719 33.8681 50.1318 34.8202 51.6483ZM39.0222 55.2449L49.1701 40.1179C48.3486 39.3065 47.3814 38.6575 46.3192 38.205L36.1714 53.3321C36.9928 54.1434 37.96 54.7924 39.0222 55.2449ZM51.9352 46.8682C51.9081 48.6582 51.3638 50.4021 50.3681 51.8897C49.3693 53.3752 47.9622 54.5401 46.3164 55.244C44.6706 55.9479 42.8564 56.1606 41.0924 55.8566L50.5211 41.8016C51.4712 43.3187 51.9624 45.0783 51.9352 46.8682Z" fill="#6B6B6B"/>
</svg>
