<svg width="57" height="56" viewBox="0 0 57 56" fill="none" xmlns="http://www.w3.org/2000/svg">
<path d="M47.2427 7.55496C42.1098 2.88607 35.4638 0.314648 28.5287 0.314648C20.7101 0.314648 13.2094 3.62756 7.95045 9.4039C-2.37233 20.7418 -1.54242 38.3598 9.8 48.6775C14.9331 53.3464 21.5792 55.9178 28.5146 55.9181C36.3326 55.9181 43.8339 52.6049 49.0934 46.8288C59.4147 35.4903 58.5845 17.8723 47.2427 7.55496ZM52.7677 20.8245L52.3976 20.7092L47.6997 27.3519L37.2153 27.0322L31.9865 19.3876L35.3117 9.98613L42.6411 7.10068C43.6649 7.7888 44.645 8.55168 45.5693 9.39247C49.0889 12.5941 51.4947 16.5682 52.7677 20.8245ZM26.8412 53.3717C21.6148 53.0272 16.6421 51.0799 12.569 47.7752L13.0435 47.6285L13.1527 39.3885L20.3007 34.4861L29.0147 37.5935L31.7849 47.1076L26.8412 53.3717ZM13.6764 15.7878L13.3988 7.81957C17.5508 4.73439 22.5883 2.96571 27.8183 2.81819L27.6219 3.12619L32.8917 9.51523L29.6916 18.5635L20.7807 21.1925L13.6764 15.7878ZM4.4116 20.384L4.63722 20.6724L12.3726 17.8588L19.2609 23.099L18.9541 32.4538L11.674 37.4469L4.12864 34.8855C2.82177 30.1511 2.90629 25.0985 4.4116 20.384ZM47.2548 45.1564C45.6487 46.9202 43.8091 48.425 41.81 49.6552L41.8268 49.238L34.1168 46.3929L31.3988 37.0596L37.2515 29.4715L47.6949 29.7903L52.5062 36.234C51.4229 39.4468 49.6796 42.4923 47.2548 45.1564Z" fill="#6B6B6B"/>
</svg>
