<svg width="57" height="56" viewBox="0 0 57 56" fill="none" xmlns="http://www.w3.org/2000/svg">
<path d="M38.7859 37.0427C37.4543 38.3742 36.5846 40.0609 36.2393 41.8665C38.4659 41.7802 40.6017 40.8576 42.2133 39.2461C43.5553 37.904 44.4126 36.1916 44.7092 34.3625C42.4932 34.5113 40.3849 35.4436 38.7859 37.0427Z" fill="#6B6B6B"/>
<path d="M36.0916 44.3103C36.2507 46.5383 37.2056 48.6284 38.7865 50.2092C40.1453 51.5763 41.8574 52.4567 43.706 52.7855C44.0827 50.0645 45.3132 47.5424 47.29 45.5544C49.2604 43.572 51.7851 42.3396 54.5251 41.9646C54.1923 40.1162 53.3131 38.411 51.953 37.0427C50.5542 35.6531 48.7619 34.7484 46.8499 34.4486C46.5238 36.8095 45.4369 39.0235 43.7141 40.7463C41.6653 42.7961 38.929 43.9431 36.084 43.9898C36.0886 44.0968 36.0831 44.2031 36.0916 44.3103Z" fill="#6B6B6B"/>
<path d="M45.8311 52.9055C48.139 52.757 50.31 51.8621 51.953 50.2093C53.6054 48.5569 54.546 46.3982 54.6574 44.0878C52.4372 44.4259 50.3951 45.4407 48.7944 47.0506C47.1876 48.6657 46.1731 50.7041 45.8311 52.9055Z" fill="#6B6B6B"/>
<path d="M20.4028 35.6557L25.0449 38.6172L15.8763 52.7351C15.0936 53.9401 13.4858 54.2886 12.2746 53.5159C11.0633 52.7432 10.7017 51.1383 11.4646 49.9208L20.4028 35.6557ZM50.0914 11.3088C50.7977 15.1709 50.028 19.4972 47.5806 23.3203C45.3333 27.0385 41.7524 29.7438 37.5806 30.9195C37.4531 30.9555 37.3307 31.0038 37.202 31.0367C36.341 31.2323 35.4946 31.4738 34.6596 31.7458C31.9424 32.6303 29.371 33.9037 27.0202 35.5208L22.3781 32.5594C22.854 29.7461 22.9247 26.8775 22.5817 24.0406C22.4762 23.1687 22.3387 22.2993 22.1529 21.4361C22.1285 21.3051 22.1207 21.1732 22.0995 21.042C21.4077 16.7637 22.3517 12.3768 24.7762 8.77208C27.2112 4.94185 30.8093 2.42038 34.609 1.43295C35.2435 1.26804 35.8824 1.14045 36.5237 1.06331C39.3469 0.723184 42.1926 1.23364 44.6817 2.71679C47.0758 4.34887 48.7382 6.71451 49.6198 9.41781C49.8199 10.0316 49.9735 10.6642 50.0914 11.3088ZM28.9208 30.1426C28.4999 29.962 28.1066 29.765 27.7328 29.5463L27.4949 29.3946C27.141 29.1491 26.7946 28.8741 26.4554 28.5698C26.4342 29.2881 26.3882 30.0047 26.321 30.719L27.0266 31.1692C27.6481 30.8084 28.2786 30.4647 28.9208 30.1426ZM45.9029 11.0452C45.5079 9.65313 44.8463 8.38622 43.9038 7.35005C43.4889 6.89413 43.0292 6.47627 42.5124 6.11727C41.9689 5.79982 41.3959 5.559 40.8072 5.37489C39.4703 4.95703 38.0422 4.8911 36.6134 5.12002C34.2374 5.50042 31.8863 6.74251 29.9739 8.69867C29.6799 8.99952 29.4049 9.32141 29.134 9.65587C29.0961 9.70252 29.0616 9.75313 29.0242 9.80045L27.3832 12.3728C27.3163 12.5035 27.2344 12.6288 27.1723 12.761C27.0206 13.0829 26.8848 13.4062 26.7606 13.7356C25.921 15.9626 25.6669 18.3406 26.1041 20.7024C26.1434 20.8843 26.1811 21.0667 26.2172 21.2495C26.2251 21.2891 26.2432 21.3231 26.2516 21.3626C26.5653 22.8378 27.2632 24.1079 28.2017 25.1345C28.6237 25.596 29.0779 26.0233 29.5886 26.3759C30.1234 26.6902 30.7019 26.922 31.298 27.11C32.6244 27.5288 34.0703 27.6263 35.5401 27.2893C35.5797 27.2801 35.6185 27.282 35.6582 27.2724C35.8393 27.2282 36.0207 27.1854 36.202 27.1444C38.5271 26.5458 40.5752 25.3139 42.2406 23.6151C42.4878 23.3627 42.7248 23.1025 42.9535 22.8285C43.0444 22.7196 43.1211 22.596 43.2089 22.484L44.8628 19.8915C44.8883 19.8409 44.9176 19.7915 44.9425 19.7409C45.1322 19.3531 45.3085 18.9671 45.4577 18.5724C46.4241 16.0146 46.5593 13.3595 45.9029 11.0452Z" fill="#6B6B6B"/>
</svg>
